<mxfile host="65bd71144e">
    <diagram id="sNHQUe1SK0V82_0eaNel" name="PÃ¡gina-1">
        <mxGraphModel dx="1494" dy="1064" grid="1" gridSize="10" guides="1" tooltips="1" connect="1" arrows="1" fold="1" page="1" pageScale="1" pageWidth="2336" pageHeight="1654" background="none" math="0" shadow="0">
            <root>
                <mxCell id="0"/>
                <mxCell id="1" parent="0"/>
                <mxCell id="20" style="edgeStyle=none;html=1;exitX=0.5;exitY=1;exitDx=0;exitDy=0;exitPerimeter=0;entryX=-0.005;entryY=0.555;entryDx=0;entryDy=0;strokeColor=#666666;endArrow=classic;endFill=1;entryPerimeter=0;startArrow=classic;startFill=1;" parent="1" source="3" target="12" edge="1">
                    <mxGeometry relative="1" as="geometry">
                        <Array as="points">
                            <mxPoint x="130" y="400"/>
                        </Array>
                    </mxGeometry>
                </mxCell>
                <mxCell id="234" style="edgeStyle=none;html=1;exitX=0;exitY=0.5;exitDx=0;exitDy=0;exitPerimeter=0;strokeColor=#B20000;fontSize=11;startArrow=classic;startFill=1;endArrow=oval;endFill=1;fillColor=#e51400;" parent="1" source="3" edge="1">
                    <mxGeometry relative="1" as="geometry">
                        <mxPoint x="50" y="100.1159420289855" as="targetPoint"/>
                    </mxGeometry>
                </mxCell>
                <mxCell id="3" value="" style="outlineConnect=0;dashed=0;verticalLabelPosition=bottom;verticalAlign=top;align=center;html=1;shape=mxgraph.aws3.internet_gateway;fillColor=#0050ef;fontColor=#ffffff;strokeColor=#6666FF;" parent="1" vertex="1">
                    <mxGeometry x="80" y="50" width="100" height="100" as="geometry"/>
                </mxCell>
                <mxCell id="18" value="" style="group" parent="1" vertex="1" connectable="0">
                    <mxGeometry x="180" y="370" width="120" height="53" as="geometry"/>
                </mxCell>
                <mxCell id="12" value="" style="rounded=1;whiteSpace=wrap;html=1;strokeColor=none;fillColor=#2ECC71;shadow=0;" parent="18" vertex="1">
                    <mxGeometry width="120" height="53" as="geometry"/>
                </mxCell>
                <mxCell id="13" value="API Gateway" style="text;html=1;strokeColor=none;fillColor=none;align=left;verticalAlign=middle;whiteSpace=wrap;rounded=0;" parent="18" vertex="1">
                    <mxGeometry x="9" y="16.023255813953487" width="79" height="20.953488372093023" as="geometry"/>
                </mxCell>
                <mxCell id="17" value="" style="sketch=0;outlineConnect=0;fontColor=#ffffff;fillColor=#008a00;strokeColor=#005700;dashed=0;verticalLabelPosition=bottom;verticalAlign=top;align=center;html=1;fontSize=12;fontStyle=0;aspect=fixed;pointerEvents=1;shape=mxgraph.aws4.gateway;rounded=1;shadow=0;" parent="18" vertex="1">
                    <mxGeometry x="88.55000000000001" y="12.017441860465116" width="22.9" height="23.5" as="geometry"/>
                </mxCell>
                <mxCell id="22" style="edgeStyle=none;html=1;exitX=0.5;exitY=1;exitDx=0;exitDy=0;entryX=0.875;entryY=0;entryDx=0;entryDy=0;entryPerimeter=0;strokeColor=#666666;fontSize=8;startArrow=none;startFill=0;endArrow=none;endFill=0;" parent="1" target="12" edge="1">
                    <mxGeometry relative="1" as="geometry">
                        <mxPoint x="285" y="370" as="sourcePoint"/>
                    </mxGeometry>
                </mxCell>
                <mxCell id="187" style="edgeStyle=none;html=1;exitX=0.25;exitY=1;exitDx=0;exitDy=0;fontSize=7;fillColor=#e51400;strokeColor=#B20000;endArrow=oval;endFill=0;" parent="1" source="36" edge="1">
                    <mxGeometry relative="1" as="geometry">
                        <mxPoint x="259.9767441860465" y="450" as="targetPoint"/>
                    </mxGeometry>
                </mxCell>
                <mxCell id="36" value="CLIENT" style="rounded=1;whiteSpace=wrap;html=1;shadow=0;strokeColor=none;fontSize=8;fillColor=#009999;fontColor=#ffffff;" parent="1" vertex="1">
                    <mxGeometry x="250" y="423" width="40" height="10" as="geometry"/>
                </mxCell>
                <mxCell id="49" value="" style="group" parent="1" vertex="1" connectable="0">
                    <mxGeometry x="400" y="370" width="120" height="53" as="geometry"/>
                </mxCell>
                <mxCell id="50" value="" style="rounded=1;whiteSpace=wrap;html=1;strokeColor=none;fillColor=#2ECC71;shadow=0;" parent="49" vertex="1">
                    <mxGeometry width="120" height="53" as="geometry"/>
                </mxCell>
                <mxCell id="51" value="Controller" style="text;html=1;strokeColor=none;fillColor=none;align=left;verticalAlign=middle;whiteSpace=wrap;rounded=0;" parent="49" vertex="1">
                    <mxGeometry x="9" y="16.023255813953487" width="79" height="20.953488372093023" as="geometry"/>
                </mxCell>
                <mxCell id="55" value="" style="sketch=0;outlineConnect=0;fontColor=#232F3E;gradientColor=none;fillColor=#3F8624;strokeColor=none;dashed=0;verticalLabelPosition=bottom;verticalAlign=top;align=center;html=1;fontSize=12;fontStyle=0;aspect=fixed;pointerEvents=1;shape=mxgraph.aws4.iot_thing_plc;rounded=1;shadow=0;" parent="49" vertex="1">
                    <mxGeometry x="81.44999999999999" y="11.5" width="30" height="30" as="geometry"/>
                </mxCell>
                <mxCell id="53" value="POST" style="rounded=1;whiteSpace=wrap;html=1;shadow=0;strokeColor=none;fontSize=8;fillColor=#60a917;fontColor=#ffffff;" parent="1" vertex="1">
                    <mxGeometry x="480" y="360" width="30" height="10" as="geometry"/>
                </mxCell>
                <mxCell id="134" style="edgeStyle=none;html=1;entryX=0.75;entryY=1;entryDx=0;entryDy=0;dashed=1;strokeColor=#666666;startArrow=none;startFill=0;endArrow=classic;endFill=1;" parent="1" target="50" edge="1">
                    <mxGeometry relative="1" as="geometry">
                        <Array as="points">
                            <mxPoint x="680" y="520"/>
                            <mxPoint x="680" y="490"/>
                            <mxPoint x="490" y="490"/>
                        </Array>
                        <mxPoint x="680" y="530" as="sourcePoint"/>
                    </mxGeometry>
                </mxCell>
                <mxCell id="57" value="" style="sketch=0;aspect=fixed;html=1;points=[];align=center;image;fontSize=12;image=img/lib/mscae/Cache_Redis_Product.svg;rounded=1;shadow=0;strokeColor=#6666FF;fontColor=#FFFFFF;fillColor=#009999;" parent="1" vertex="1">
                    <mxGeometry x="660" y="533.5" width="50" height="42" as="geometry"/>
                </mxCell>
                <mxCell id="58" value="" style="group" parent="1" vertex="1" connectable="0">
                    <mxGeometry x="740" y="533.5" width="120" height="20" as="geometry"/>
                </mxCell>
                <mxCell id="59" value="" style="rounded=1;whiteSpace=wrap;html=1;strokeColor=none;fillColor=#6666FF;shadow=1;" parent="58" vertex="1">
                    <mxGeometry width="120" height="20" as="geometry"/>
                </mxCell>
                <mxCell id="60" value="Redis Cache" style="text;html=1;strokeColor=none;fillColor=none;align=left;verticalAlign=middle;whiteSpace=wrap;rounded=0;" parent="58" vertex="1">
                    <mxGeometry x="9" y="6.046511627906977" width="79" height="7.906976744186046" as="geometry"/>
                </mxCell>
                <mxCell id="63" style="edgeStyle=none;html=1;exitX=-0.001;exitY=0.657;exitDx=0;exitDy=0;entryX=1.005;entryY=0.309;entryDx=0;entryDy=0;entryPerimeter=0;strokeColor=#666666;fontSize=12;fontColor=#FFFFFF;startArrow=none;startFill=0;endArrow=none;endFill=0;dashed=1;exitPerimeter=0;" parent="1" source="59" target="57" edge="1">
                    <mxGeometry relative="1" as="geometry">
                        <Array as="points">
                            <mxPoint x="720" y="546.5"/>
                        </Array>
                    </mxGeometry>
                </mxCell>
                <mxCell id="73" value="" style="group" parent="1" vertex="1" connectable="0">
                    <mxGeometry x="420" y="600" width="120" height="53" as="geometry"/>
                </mxCell>
                <mxCell id="72" value="Data Loading" style="rounded=1;whiteSpace=wrap;html=1;shadow=0;strokeColor=#3700CC;fontSize=12;fontColor=#ffffff;fillColor=#6a00ff;align=left;spacingLeft=10;" parent="73" vertex="1">
                    <mxGeometry width="120" height="53" as="geometry"/>
                </mxCell>
                <mxCell id="65" value="" style="sketch=0;outlineConnect=0;fillColor=#eeeeee;strokeColor=#36393d;dashed=0;verticalLabelPosition=bottom;verticalAlign=top;align=center;html=1;fontSize=12;fontStyle=0;aspect=fixed;pointerEvents=1;shape=mxgraph.aws4.data_set;rounded=1;shadow=0;" parent="73" vertex="1">
                    <mxGeometry x="90.62" y="14.5" width="19.38" height="24" as="geometry"/>
                </mxCell>
                <mxCell id="76" value="SESSION" style="rounded=1;whiteSpace=wrap;html=1;shadow=0;strokeColor=#6F0000;fontSize=8;fillColor=#a20025;fontColor=#ffffff;" parent="73" vertex="1">
                    <mxGeometry x="5" width="45" height="20" as="geometry"/>
                </mxCell>
                <mxCell id="75" value="GET" style="rounded=1;whiteSpace=wrap;html=1;shadow=0;strokeColor=none;fontSize=8;fillColor=#0066CC;fontColor=#ffffff;" parent="1" vertex="1">
                    <mxGeometry x="425" y="590" width="30" height="10" as="geometry"/>
                </mxCell>
                <mxCell id="78" style="edgeStyle=none;html=1;exitX=0.75;exitY=1;exitDx=0;exitDy=0;entryX=0.5;entryY=0;entryDx=0;entryDy=0;strokeColor=#0066CC;fontSize=12;fontColor=#FFFFFF;startArrow=block;startFill=1;endArrow=none;endFill=0;" parent="1" source="77" target="75" edge="1">
                    <mxGeometry relative="1" as="geometry">
                        <Array as="points">
                            <mxPoint x="440" y="480"/>
                        </Array>
                    </mxGeometry>
                </mxCell>
                <mxCell id="77" value="CLIENT" style="rounded=1;whiteSpace=wrap;html=1;shadow=0;strokeColor=none;fontSize=8;fillColor=#009999;fontColor=#ffffff;" parent="1" vertex="1">
                    <mxGeometry x="410" y="423" width="40" height="10" as="geometry"/>
                </mxCell>
                <mxCell id="83" style="edgeStyle=none;html=1;exitX=0.475;exitY=0.988;exitDx=0;exitDy=0;exitPerimeter=0;entryX=0;entryY=0.5;entryDx=0;entryDy=0;entryPerimeter=0;strokeColor=#0066CC;fontSize=12;fontColor=#FFFFFF;startArrow=none;startFill=0;endArrow=block;endFill=1;" parent="1" source="79" target="80" edge="1">
                    <mxGeometry relative="1" as="geometry">
                        <Array as="points">
                            <mxPoint x="455" y="880"/>
                        </Array>
                    </mxGeometry>
                </mxCell>
                <mxCell id="79" value="Main" style="shape=cylinder3;whiteSpace=wrap;html=1;boundedLbl=1;backgroundOutline=1;size=15;rounded=1;shadow=0;strokeColor=#6666FF;fontSize=12;fontColor=#FFFFFF;fillColor=#0066CC;" parent="1" vertex="1">
                    <mxGeometry x="410" y="720" width="95" height="80" as="geometry"/>
                </mxCell>
                <mxCell id="80" value="Replica A" style="shape=cylinder3;whiteSpace=wrap;html=1;boundedLbl=1;backgroundOutline=1;size=15;rounded=1;shadow=0;strokeColor=#006EAF;fontSize=12;fontColor=#ffffff;fillColor=#1ba1e2;" parent="1" vertex="1">
                    <mxGeometry x="545" y="840" width="95" height="80" as="geometry"/>
                </mxCell>
                <mxCell id="82" style="edgeStyle=none;html=1;exitX=1;exitY=0.5;exitDx=0;exitDy=0;entryX=0.525;entryY=-0.002;entryDx=0;entryDy=0;entryPerimeter=0;strokeColor=#666666;fontSize=12;fontColor=#FFFFFF;startArrow=classic;startFill=1;endArrow=none;endFill=0;dashed=1;" parent="1" source="72" target="80" edge="1">
                    <mxGeometry relative="1" as="geometry">
                        <mxPoint x="595.55" y="589.94" as="sourcePoint"/>
                        <mxPoint x="595" y="203.06199999999995" as="targetPoint"/>
                        <Array as="points">
                            <mxPoint x="593" y="627"/>
                            <mxPoint x="595" y="640"/>
                        </Array>
                    </mxGeometry>
                </mxCell>
                <mxCell id="84" value="Start" style="rounded=1;whiteSpace=wrap;html=1;shadow=0;strokeColor=none;fontSize=12;fillColor=#fa6800;fontColor=#FFFFFF;align=left;spacingLeft=10;" parent="1" vertex="1">
                    <mxGeometry x="830" y="441.5" width="120" height="53" as="geometry"/>
                </mxCell>
                <mxCell id="85" value="Sherlock" style="rounded=1;whiteSpace=wrap;html=1;shadow=0;strokeColor=none;fontSize=12;fillColor=#fa6800;fontColor=#FFFFFF;align=left;spacingLeft=10;" parent="1" vertex="1">
                    <mxGeometry x="830" y="298.5" width="120" height="53" as="geometry"/>
                </mxCell>
                <mxCell id="87" value="POST" style="rounded=1;whiteSpace=wrap;html=1;shadow=0;strokeColor=none;fontSize=8;fillColor=#60a917;fontColor=#ffffff;rotation=-90;" parent="1" vertex="1">
                    <mxGeometry x="810" y="463" width="30" height="10" as="geometry"/>
                </mxCell>
                <mxCell id="88" value="POST" style="rounded=1;whiteSpace=wrap;html=1;shadow=0;strokeColor=none;fontSize=8;fillColor=#60a917;fontColor=#ffffff;rotation=-90;" parent="1" vertex="1">
                    <mxGeometry x="810" y="320" width="30" height="10" as="geometry"/>
                </mxCell>
                <mxCell id="108" style="edgeStyle=none;html=1;exitX=0.988;exitY=0.668;exitDx=0;exitDy=0;strokeColor=#0066CC;fontSize=12;fontColor=#FFFFFF;startArrow=none;startFill=0;endArrow=block;endFill=1;exitPerimeter=0;entryX=0.5;entryY=0;entryDx=0;entryDy=0;" parent="1" source="36" target="53" edge="1">
                    <mxGeometry relative="1" as="geometry">
                        <Array as="points">
                            <mxPoint x="330" y="430"/>
                            <mxPoint x="330" y="340"/>
                            <mxPoint x="420" y="340"/>
                            <mxPoint x="495" y="340"/>
                        </Array>
                        <mxPoint x="440" y="443" as="sourcePoint"/>
                        <mxPoint x="500" y="340" as="targetPoint"/>
                    </mxGeometry>
                </mxCell>
                <mxCell id="129" style="edgeStyle=none;html=1;exitX=0.5;exitY=1;exitDx=0;exitDy=0;exitPerimeter=0;entryX=0;entryY=0.5;entryDx=0;entryDy=0;entryPerimeter=0;strokeColor=#006EAF;startArrow=none;startFill=0;endArrow=classic;endFill=1;fillColor=#1ba1e2;" parent="1" source="110" target="127" edge="1">
                    <mxGeometry relative="1" as="geometry">
                        <Array as="points">
                            <mxPoint x="943" y="1110"/>
                        </Array>
                    </mxGeometry>
                </mxCell>
                <mxCell id="110" value="Main" style="shape=cylinder3;whiteSpace=wrap;html=1;boundedLbl=1;backgroundOutline=1;size=15;rounded=1;shadow=0;strokeColor=#6D1F00;fontSize=12;fontColor=#ffffff;fillColor=#a0522d;" parent="1" vertex="1">
                    <mxGeometry x="895" y="957" width="95" height="80" as="geometry"/>
                </mxCell>
                <mxCell id="128" style="edgeStyle=none;html=1;exitX=0.25;exitY=1;exitDx=0;exitDy=0;entryX=0.478;entryY=0.005;entryDx=0;entryDy=0;entryPerimeter=0;startArrow=none;startFill=0;endArrow=classic;endFill=1;dashed=1;strokeColor=#666666;" parent="1" source="120" target="110" edge="1">
                    <mxGeometry relative="1" as="geometry"/>
                </mxCell>
                <mxCell id="120" value="Logging" style="rounded=1;whiteSpace=wrap;html=1;shadow=0;strokeColor=#6D1F00;fontSize=12;fillColor=#a0522d;fontColor=#ffffff;align=left;spacingLeft=10;" parent="1" vertex="1">
                    <mxGeometry x="910" y="808.5" width="120" height="53" as="geometry"/>
                </mxCell>
                <mxCell id="123" value="" style="sketch=0;pointerEvents=1;shadow=0;dashed=0;html=1;strokeColor=none;labelPosition=center;verticalLabelPosition=bottom;verticalAlign=top;align=center;fillColor=#505050;shape=mxgraph.mscae.oms.log_management" parent="1" vertex="1">
                    <mxGeometry x="984.5" y="820" width="31" height="30" as="geometry"/>
                </mxCell>
                <mxCell id="125" value="POST" style="rounded=1;whiteSpace=wrap;html=1;shadow=0;strokeColor=none;fontSize=8;fillColor=#60a917;fontColor=#ffffff;" parent="1" vertex="1">
                    <mxGeometry x="990" y="800" width="30" height="10" as="geometry"/>
                </mxCell>
                <mxCell id="127" value="Replica" style="shape=cylinder3;whiteSpace=wrap;html=1;boundedLbl=1;backgroundOutline=1;size=15;rounded=1;shadow=0;strokeColor=#6D1F00;fontSize=12;fontColor=#ffffff;fillColor=#a0522d;" parent="1" vertex="1">
                    <mxGeometry x="1005" y="1070" width="95" height="80" as="geometry"/>
                </mxCell>
                <mxCell id="133" style="edgeStyle=none;html=1;exitX=0.995;exitY=0.194;exitDx=0;exitDy=0;entryX=0.5;entryY=1;entryDx=0;entryDy=0;entryPerimeter=0;exitPerimeter=0;dashed=1;strokeColor=#666666;" parent="1" source="72" target="57" edge="1">
                    <mxGeometry relative="1" as="geometry">
                        <Array as="points">
                            <mxPoint x="685" y="610"/>
                        </Array>
                    </mxGeometry>
                </mxCell>
                <mxCell id="137" style="edgeStyle=none;html=1;exitX=0.997;exitY=0.569;exitDx=0;exitDy=0;entryX=0.5;entryY=0;entryDx=0;entryDy=0;strokeColor=#006EAF;startArrow=none;startFill=0;endArrow=classic;endFill=1;exitPerimeter=0;fillColor=#1ba1e2;" parent="1" source="50" target="87" edge="1">
                    <mxGeometry relative="1" as="geometry">
                        <Array as="points">
                            <mxPoint x="640" y="400"/>
                            <mxPoint x="640" y="468"/>
                        </Array>
                    </mxGeometry>
                </mxCell>
                <mxCell id="138" style="edgeStyle=none;html=1;exitX=0.997;exitY=0.577;exitDx=0;exitDy=0;entryX=0.5;entryY=0;entryDx=0;entryDy=0;strokeColor=#006EAF;startArrow=none;startFill=0;endArrow=classic;endFill=1;exitPerimeter=0;fillColor=#1ba1e2;" parent="1" source="50" target="88" edge="1">
                    <mxGeometry relative="1" as="geometry">
                        <Array as="points">
                            <mxPoint x="640" y="400"/>
                            <mxPoint x="640" y="325"/>
                        </Array>
                    </mxGeometry>
                </mxCell>
                <mxCell id="150" style="edgeStyle=none;html=1;exitX=0.455;exitY=0.99;exitDx=0;exitDy=0;entryX=0.5;entryY=0;entryDx=0;entryDy=0;strokeColor=#006EAF;startArrow=none;startFill=0;endArrow=classic;endFill=1;exitPerimeter=0;fillColor=#1ba1e2;" parent="1" source="140" target="149" edge="1">
                    <mxGeometry relative="1" as="geometry">
                        <Array as="points">
                            <mxPoint x="990" y="470"/>
                            <mxPoint x="990" y="400"/>
                        </Array>
                    </mxGeometry>
                </mxCell>
                <mxCell id="152" style="edgeStyle=none;html=1;exitX=0.455;exitY=0.982;exitDx=0;exitDy=0;entryX=0.5;entryY=0;entryDx=0;entryDy=0;strokeColor=#006EAF;startArrow=none;startFill=0;endArrow=classic;endFill=1;exitPerimeter=0;fillColor=#1ba1e2;" parent="1" source="140" target="147" edge="1">
                    <mxGeometry relative="1" as="geometry">
                        <Array as="points">
                            <mxPoint x="990" y="470"/>
                            <mxPoint x="990" y="443"/>
                        </Array>
                    </mxGeometry>
                </mxCell>
                <mxCell id="153" style="edgeStyle=none;html=1;exitX=0.454;exitY=0.977;exitDx=0;exitDy=0;entryX=0.5;entryY=0;entryDx=0;entryDy=0;strokeColor=#006EAF;startArrow=none;startFill=0;endArrow=classic;endFill=1;exitPerimeter=0;fillColor=#1ba1e2;" parent="1" source="140" target="145" edge="1">
                    <mxGeometry relative="1" as="geometry">
                        <Array as="points">
                            <mxPoint x="990" y="470"/>
                            <mxPoint x="990" y="483"/>
                        </Array>
                    </mxGeometry>
                </mxCell>
                <mxCell id="176" style="edgeStyle=none;html=1;exitX=0.5;exitY=1;exitDx=0;exitDy=0;entryX=0.545;entryY=-0.009;entryDx=0;entryDy=0;strokeColor=#006EAF;startArrow=none;startFill=0;endArrow=classic;endFill=1;entryPerimeter=0;fillColor=#1ba1e2;" parent="1" source="140" target="174" edge="1">
                    <mxGeometry relative="1" as="geometry">
                        <Array as="points">
                            <mxPoint x="990" y="470"/>
                            <mxPoint x="990" y="360"/>
                        </Array>
                    </mxGeometry>
                </mxCell>
                <mxCell id="189" style="edgeStyle=none;html=1;exitX=0.75;exitY=1;exitDx=0;exitDy=0;fontSize=7;endArrow=oval;endFill=0;fillColor=#e51400;strokeColor=#B20000;" parent="1" source="140" edge="1">
                    <mxGeometry relative="1" as="geometry">
                        <mxPoint x="970" y="458.0769230769231" as="targetPoint"/>
                    </mxGeometry>
                </mxCell>
                <mxCell id="140" value="CLIENT" style="rounded=1;whiteSpace=wrap;html=1;shadow=0;strokeColor=none;fontSize=8;fillColor=#009999;fontColor=#ffffff;rotation=-90;" parent="1" vertex="1">
                    <mxGeometry x="930" y="463" width="40" height="10" as="geometry"/>
                </mxCell>
                <mxCell id="144" value="/start" style="rounded=1;whiteSpace=wrap;html=1;shadow=0;strokeColor=#A50040;fontSize=12;fillColor=#d80073;fontColor=#ffffff;align=left;spacingLeft=10;" parent="1" vertex="1">
                    <mxGeometry x="1130" y="473" width="120" height="20" as="geometry"/>
                </mxCell>
                <mxCell id="145" value="POST" style="rounded=1;whiteSpace=wrap;html=1;shadow=0;strokeColor=none;fontSize=8;fillColor=#60a917;fontColor=#ffffff;rotation=-90;" parent="1" vertex="1">
                    <mxGeometry x="1110" y="478" width="30" height="10" as="geometry"/>
                </mxCell>
                <mxCell id="146" value="/AboutUs" style="rounded=1;whiteSpace=wrap;html=1;shadow=0;strokeColor=#A50040;fontSize=12;fillColor=#d80073;fontColor=#ffffff;align=left;spacingLeft=10;" parent="1" vertex="1">
                    <mxGeometry x="1130" y="433" width="120" height="20" as="geometry"/>
                </mxCell>
                <mxCell id="147" value="POST" style="rounded=1;whiteSpace=wrap;html=1;shadow=0;strokeColor=none;fontSize=8;fillColor=#60a917;fontColor=#ffffff;rotation=-90;" parent="1" vertex="1">
                    <mxGeometry x="1110" y="438" width="30" height="10" as="geometry"/>
                </mxCell>
                <mxCell id="148" value="/help" style="rounded=1;whiteSpace=wrap;html=1;shadow=0;strokeColor=#A50040;fontSize=12;fillColor=#d80073;fontColor=#ffffff;align=left;spacingLeft=10;" parent="1" vertex="1">
                    <mxGeometry x="1130" y="390" width="120" height="20" as="geometry"/>
                </mxCell>
                <mxCell id="149" value="POST" style="rounded=1;whiteSpace=wrap;html=1;shadow=0;strokeColor=none;fontSize=8;fillColor=#60a917;fontColor=#ffffff;rotation=-90;" parent="1" vertex="1">
                    <mxGeometry x="1110" y="395" width="30" height="10" as="geometry"/>
                </mxCell>
                <mxCell id="156" value="" style="group" parent="1" vertex="1" connectable="0">
                    <mxGeometry x="1430" y="370" width="120" height="53" as="geometry"/>
                </mxCell>
                <mxCell id="157" value="" style="rounded=1;whiteSpace=wrap;html=1;strokeColor=none;fillColor=#2ECC71;shadow=0;" parent="156" vertex="1">
                    <mxGeometry width="120" height="53" as="geometry"/>
                </mxCell>
                <mxCell id="158" value="Sender" style="text;html=1;strokeColor=none;fillColor=none;align=left;verticalAlign=middle;whiteSpace=wrap;rounded=0;" parent="156" vertex="1">
                    <mxGeometry x="9" y="16.023255813953487" width="79" height="20.953488372093023" as="geometry"/>
                </mxCell>
                <mxCell id="160" value="" style="shape=message;html=1;html=1;outlineConnect=0;labelPosition=center;verticalLabelPosition=bottom;align=center;verticalAlign=top;strokeColor=#666666;fillColor=#2ECC71;" parent="156" vertex="1">
                    <mxGeometry x="80" y="18" width="30" height="17" as="geometry"/>
                </mxCell>
                <mxCell id="163" value="CLIENT" style="rounded=1;whiteSpace=wrap;html=1;shadow=0;strokeColor=none;fontSize=8;fillColor=#009999;fontColor=#ffffff;rotation=0;" parent="156" vertex="1">
                    <mxGeometry x="70" y="-10" width="40" height="10" as="geometry"/>
                </mxCell>
                <mxCell id="161" value="POST" style="rounded=1;whiteSpace=wrap;html=1;shadow=0;strokeColor=none;fontSize=8;fillColor=#60a917;fontColor=#ffffff;rotation=-90;" parent="1" vertex="1">
                    <mxGeometry x="1410" y="391.5" width="30" height="10" as="geometry"/>
                </mxCell>
                <mxCell id="164" style="edgeStyle=none;html=1;exitX=0.5;exitY=0;exitDx=0;exitDy=0;strokeColor=#00CC00;startArrow=none;startFill=0;endArrow=classic;endFill=1;entryX=1;entryY=0.5;entryDx=0;entryDy=0;entryPerimeter=0;fillColor=#008a00;" parent="1" source="163" target="3" edge="1">
                    <mxGeometry relative="1" as="geometry">
                        <mxPoint x="1230" y="100" as="targetPoint"/>
                        <Array as="points">
                            <mxPoint x="1520" y="100"/>
                        </Array>
                    </mxGeometry>
                </mxCell>
                <mxCell id="170" style="edgeStyle=none;html=1;exitX=0.5;exitY=1;exitDx=0;exitDy=0;entryX=0.399;entryY=-0.085;entryDx=0;entryDy=0;strokeColor=#00CC00;startArrow=none;startFill=0;endArrow=classic;endFill=1;entryPerimeter=0;" parent="1" source="166" target="161" edge="1">
                    <mxGeometry relative="1" as="geometry">
                        <Array as="points">
                            <mxPoint x="1330" y="483"/>
                            <mxPoint x="1330" y="400"/>
                        </Array>
                    </mxGeometry>
                </mxCell>
                <mxCell id="192" style="edgeStyle=none;html=1;exitX=0.25;exitY=1;exitDx=0;exitDy=0;fontSize=7;endArrow=oval;endFill=0;fillColor=#e51400;strokeColor=#B20000;" parent="1" source="166" edge="1">
                    <mxGeometry relative="1" as="geometry">
                        <mxPoint x="1270" y="490.5769230769231" as="targetPoint"/>
                    </mxGeometry>
                </mxCell>
                <mxCell id="166" value="CLIENT" style="rounded=1;whiteSpace=wrap;html=1;shadow=0;strokeColor=none;fontSize=8;fillColor=#009999;fontColor=#ffffff;rotation=-90;" parent="1" vertex="1">
                    <mxGeometry x="1235" y="478" width="30" height="10" as="geometry"/>
                </mxCell>
                <mxCell id="171" style="edgeStyle=none;html=1;exitX=0.5;exitY=1;exitDx=0;exitDy=0;entryX=0.422;entryY=-0.053;entryDx=0;entryDy=0;entryPerimeter=0;strokeColor=#00CC00;startArrow=none;startFill=0;endArrow=classic;endFill=1;" parent="1" source="167" target="161" edge="1">
                    <mxGeometry relative="1" as="geometry">
                        <Array as="points">
                            <mxPoint x="1330" y="443"/>
                            <mxPoint x="1330" y="400"/>
                        </Array>
                    </mxGeometry>
                </mxCell>
                <mxCell id="193" style="edgeStyle=none;html=1;exitX=0.25;exitY=1;exitDx=0;exitDy=0;fontSize=7;endArrow=oval;endFill=0;fillColor=#e51400;strokeColor=#B20000;" parent="1" source="167" edge="1">
                    <mxGeometry relative="1" as="geometry">
                        <mxPoint x="1270" y="450.5769230769231" as="targetPoint"/>
                    </mxGeometry>
                </mxCell>
                <mxCell id="167" value="CLIENT" style="rounded=1;whiteSpace=wrap;html=1;shadow=0;strokeColor=none;fontSize=8;fillColor=#009999;fontColor=#ffffff;rotation=-90;" parent="1" vertex="1">
                    <mxGeometry x="1235" y="438" width="30" height="10" as="geometry"/>
                </mxCell>
                <mxCell id="172" style="edgeStyle=none;html=1;exitX=0.5;exitY=1;exitDx=0;exitDy=0;strokeColor=#00CC00;startArrow=none;startFill=0;endArrow=classic;endFill=1;" parent="1" source="168" edge="1">
                    <mxGeometry relative="1" as="geometry">
                        <mxPoint x="1420" y="400.10112359550556" as="targetPoint"/>
                    </mxGeometry>
                </mxCell>
                <mxCell id="177" style="edgeStyle=none;html=1;exitX=0.75;exitY=1;exitDx=0;exitDy=0;entryX=0.5;entryY=0;entryDx=0;entryDy=0;fillColor=#e3c800;strokeColor=#B09500;" parent="1" source="168" target="178" edge="1">
                    <mxGeometry relative="1" as="geometry">
                        <mxPoint x="1420" y="500" as="targetPoint"/>
                        <Array as="points">
                            <mxPoint x="1390" y="393"/>
                            <mxPoint x="1390" y="600"/>
                            <mxPoint x="610" y="600"/>
                            <mxPoint x="610" y="550"/>
                            <mxPoint x="490" y="550"/>
                        </Array>
                    </mxGeometry>
                </mxCell>
                <mxCell id="194" style="edgeStyle=none;html=1;exitX=0.25;exitY=1;exitDx=0;exitDy=0;fontSize=7;endArrow=oval;endFill=0;fillColor=#e51400;strokeColor=#B20000;" parent="1" source="168" edge="1">
                    <mxGeometry relative="1" as="geometry">
                        <mxPoint x="1270" y="407.5" as="targetPoint"/>
                    </mxGeometry>
                </mxCell>
                <mxCell id="168" value="CLIENT" style="rounded=1;whiteSpace=wrap;html=1;shadow=0;strokeColor=none;fontSize=8;fillColor=#009999;fontColor=#ffffff;rotation=-90;" parent="1" vertex="1">
                    <mxGeometry x="1235" y="395" width="30" height="10" as="geometry"/>
                </mxCell>
                <mxCell id="173" value="unrecognizable" style="rounded=1;whiteSpace=wrap;html=1;shadow=0;strokeColor=#A50040;fontSize=12;fillColor=#d80073;fontColor=#ffffff;align=left;spacingLeft=10;" parent="1" vertex="1">
                    <mxGeometry x="1130" y="351.5" width="120" height="20" as="geometry"/>
                </mxCell>
                <mxCell id="174" value="POST" style="rounded=1;whiteSpace=wrap;html=1;shadow=0;strokeColor=none;fontSize=8;fillColor=#60a917;fontColor=#ffffff;rotation=-90;" parent="1" vertex="1">
                    <mxGeometry x="1110" y="356.5" width="30" height="10" as="geometry"/>
                </mxCell>
                <mxCell id="195" style="edgeStyle=none;html=1;exitX=0.25;exitY=1;exitDx=0;exitDy=0;fontSize=7;endArrow=oval;endFill=0;fillColor=#e51400;strokeColor=#B20000;" parent="1" source="175" edge="1">
                    <mxGeometry relative="1" as="geometry">
                        <mxPoint x="1270" y="369.03846153846155" as="targetPoint"/>
                    </mxGeometry>
                </mxCell>
                <mxCell id="196" style="edgeStyle=none;html=1;exitX=0.5;exitY=1;exitDx=0;exitDy=0;fontSize=7;endArrow=classic;endFill=1;fillColor=#60a917;strokeColor=#00CC00;" parent="1" source="175" edge="1">
                    <mxGeometry relative="1" as="geometry">
                        <mxPoint x="1419.9999999999998" y="400" as="targetPoint"/>
                        <Array as="points">
                            <mxPoint x="1330" y="360"/>
                            <mxPoint x="1330" y="400"/>
                        </Array>
                    </mxGeometry>
                </mxCell>
                <mxCell id="175" value="CLIENT" style="rounded=1;whiteSpace=wrap;html=1;shadow=0;strokeColor=none;fontSize=8;fillColor=#009999;fontColor=#ffffff;rotation=-90;" parent="1" vertex="1">
                    <mxGeometry x="1235" y="356.5" width="30" height="10" as="geometry"/>
                </mxCell>
                <mxCell id="178" value="POST" style="rounded=1;whiteSpace=wrap;html=1;shadow=0;strokeColor=#2D7600;fontSize=8;fillColor=#60a917;fontColor=#ffffff;" parent="1" vertex="1">
                    <mxGeometry x="475" y="590" width="30" height="10" as="geometry"/>
                </mxCell>
                <mxCell id="219" style="edgeStyle=none;html=1;exitX=1;exitY=0.5;exitDx=0;exitDy=0;exitPerimeter=0;entryX=0.5;entryY=0;entryDx=0;entryDy=0;strokeColor=#006EAF;fontSize=11;endArrow=classic;endFill=1;fillColor=#1ba1e2;" parent="1" source="185" target="214" edge="1">
                    <mxGeometry relative="1" as="geometry">
                        <Array as="points">
                            <mxPoint x="940" y="245"/>
                            <mxPoint x="940" y="210"/>
                            <mxPoint x="780" y="210"/>
                            <mxPoint x="780" y="170"/>
                        </Array>
                    </mxGeometry>
                </mxCell>
                <mxCell id="185" value="" style="outlineConnect=0;dashed=0;verticalLabelPosition=bottom;verticalAlign=top;align=center;html=1;shape=mxgraph.aws3.queue;fillColor=#D9A741;gradientColor=none;fontSize=7;" parent="1" vertex="1">
                    <mxGeometry x="840" y="230" width="73.5" height="30" as="geometry"/>
                </mxCell>
                <mxCell id="199" style="edgeStyle=none;html=1;exitX=0.25;exitY=1;exitDx=0;exitDy=0;strokeColor=#B20000;fontSize=11;endArrow=oval;endFill=0;fillColor=#e51400;" parent="1" source="186" edge="1">
                    <mxGeometry relative="1" as="geometry">
                        <mxPoint x="970" y="335" as="targetPoint"/>
                    </mxGeometry>
                </mxCell>
                <mxCell id="204" style="edgeStyle=none;html=1;exitX=0.5;exitY=1;exitDx=0;exitDy=0;strokeColor=#00CC00;fontSize=11;endArrow=classic;endFill=1;" parent="1" source="186" edge="1">
                    <mxGeometry relative="1" as="geometry">
                        <mxPoint x="1420" y="400" as="targetPoint"/>
                        <Array as="points">
                            <mxPoint x="1330" y="325"/>
                            <mxPoint x="1330" y="400"/>
                        </Array>
                    </mxGeometry>
                </mxCell>
                <mxCell id="217" style="edgeStyle=none;html=1;exitX=0.75;exitY=1;exitDx=0;exitDy=0;entryX=0.5;entryY=0;entryDx=0;entryDy=0;strokeColor=#006EAF;fontSize=11;endArrow=classic;endFill=1;fillColor=#1ba1e2;" parent="1" source="186" target="214" edge="1">
                    <mxGeometry relative="1" as="geometry">
                        <Array as="points">
                            <mxPoint x="980" y="315"/>
                            <mxPoint x="980" y="210"/>
                            <mxPoint x="780" y="210"/>
                            <mxPoint x="780" y="170"/>
                        </Array>
                    </mxGeometry>
                </mxCell>
                <mxCell id="218" style="edgeStyle=none;html=1;exitX=0.75;exitY=1;exitDx=0;exitDy=0;entryX=0;entryY=0.5;entryDx=0;entryDy=0;entryPerimeter=0;strokeColor=#006EAF;fontSize=11;endArrow=classic;endFill=1;fillColor=#1ba1e2;" parent="1" source="186" target="185" edge="1">
                    <mxGeometry relative="1" as="geometry">
                        <Array as="points">
                            <mxPoint x="980" y="315"/>
                            <mxPoint x="980" y="280"/>
                            <mxPoint x="820" y="280"/>
                            <mxPoint x="820" y="245"/>
                        </Array>
                    </mxGeometry>
                </mxCell>
                <mxCell id="186" value="CLIENT" style="rounded=1;whiteSpace=wrap;html=1;shadow=0;strokeColor=none;fontSize=8;fillColor=#009999;fontColor=#ffffff;rotation=-90;" parent="1" vertex="1">
                    <mxGeometry x="930" y="320" width="40" height="10" as="geometry"/>
                </mxCell>
                <mxCell id="188" style="edgeStyle=none;html=1;exitX=0.5;exitY=1;exitDx=0;exitDy=0;fontSize=7;fillColor=#e51400;strokeColor=#B20000;endArrow=oval;endFill=0;" parent="1" source="77" edge="1">
                    <mxGeometry relative="1" as="geometry">
                        <mxPoint x="430" y="450" as="targetPoint"/>
                        <mxPoint x="429.90999999999997" y="436" as="sourcePoint"/>
                    </mxGeometry>
                </mxCell>
                <mxCell id="197" value="Sanitizer" style="ellipse;whiteSpace=wrap;html=1;aspect=fixed;fontSize=11;fillColor=#1ba1e2;fontColor=#ffffff;strokeColor=#0066CC;strokeWidth=4;" parent="1" vertex="1">
                    <mxGeometry x="1040" y="140" width="60" height="60" as="geometry"/>
                </mxCell>
                <mxCell id="198" value="" style="group" parent="1" vertex="1" connectable="0">
                    <mxGeometry x="1168" y="140" width="72" height="60" as="geometry"/>
                </mxCell>
                <mxCell id="181" value="" style="sketch=0;html=1;aspect=fixed;strokeColor=none;shadow=0;align=center;verticalAlign=top;fillColor=#e51400;shape=mxgraph.gcp2.process;fontColor=#ffffff;" parent="198" vertex="1">
                    <mxGeometry width="50.4" height="60" as="geometry"/>
                </mxCell>
                <mxCell id="183" value="Sherlock CLI" style="text;html=1;align=center;verticalAlign=middle;resizable=0;points=[];autosize=1;strokeColor=none;fillColor=none;fontSize=7;" parent="198" vertex="1">
                    <mxGeometry x="-4.600000000000136" y="40" width="60" height="20" as="geometry"/>
                </mxCell>
                <mxCell id="222" value="CLIENT" style="rounded=1;whiteSpace=wrap;html=1;shadow=0;strokeColor=none;fontSize=8;fillColor=#009999;fontColor=#ffffff;rotation=-90;" parent="198" vertex="1">
                    <mxGeometry x="32" y="30" width="40" height="10" as="geometry"/>
                </mxCell>
                <mxCell id="201" value="POST" style="rounded=1;whiteSpace=wrap;html=1;shadow=0;strokeColor=none;fontSize=8;fillColor=#60a917;fontColor=#ffffff;rotation=-90;" parent="1" vertex="1">
                    <mxGeometry x="1020" y="165" width="30" height="10" as="geometry"/>
                </mxCell>
                <mxCell id="207" style="edgeStyle=none;html=1;exitX=0.75;exitY=0;exitDx=0;exitDy=0;strokeColor=#B20000;fontSize=11;endArrow=oval;endFill=0;fillColor=#e51400;" parent="1" source="205" edge="1">
                    <mxGeometry relative="1" as="geometry">
                        <mxPoint x="1080" y="110" as="targetPoint"/>
                    </mxGeometry>
                </mxCell>
                <mxCell id="205" value="CLIENT" style="rounded=1;whiteSpace=wrap;html=1;shadow=0;strokeColor=none;fontSize=8;fillColor=#009999;fontColor=#ffffff;rotation=0;" parent="1" vertex="1">
                    <mxGeometry x="1050" y="130" width="40" height="10" as="geometry"/>
                </mxCell>
                <mxCell id="208" style="edgeStyle=none;html=1;exitX=0.5;exitY=1;exitDx=0;exitDy=0;entryX=-0.029;entryY=0.506;entryDx=0;entryDy=0;entryPerimeter=0;strokeColor=#006EAF;fontSize=11;endArrow=classic;endFill=1;fillColor=#1ba1e2;" parent="1" source="206" target="181" edge="1">
                    <mxGeometry relative="1" as="geometry"/>
                </mxCell>
                <mxCell id="206" value="COMMAND" style="rounded=1;whiteSpace=wrap;html=1;shadow=0;strokeColor=#B20000;fontSize=8;fillColor=#e51400;fontColor=#ffffff;rotation=-90;" parent="1" vertex="1">
                    <mxGeometry x="1075" y="165" width="50" height="10" as="geometry"/>
                </mxCell>
                <mxCell id="209" value="" style="group" parent="1" vertex="1" connectable="0">
                    <mxGeometry x="820" y="150" width="120" height="40" as="geometry"/>
                </mxCell>
                <mxCell id="210" value="" style="rounded=1;whiteSpace=wrap;html=1;strokeColor=none;fillColor=#2ECC71;shadow=0;" parent="209" vertex="1">
                    <mxGeometry width="120" height="40" as="geometry"/>
                </mxCell>
                <mxCell id="211" value="Controller" style="text;html=1;strokeColor=none;fillColor=none;align=left;verticalAlign=middle;whiteSpace=wrap;rounded=0;" parent="209" vertex="1">
                    <mxGeometry x="9" y="12.093023255813954" width="79" height="15.813953488372094" as="geometry"/>
                </mxCell>
                <mxCell id="212" value="" style="sketch=0;outlineConnect=0;fontColor=#232F3E;gradientColor=none;fillColor=#3F8624;strokeColor=none;dashed=0;verticalLabelPosition=bottom;verticalAlign=top;align=center;html=1;fontSize=12;fontStyle=0;aspect=fixed;pointerEvents=1;shape=mxgraph.aws4.iot_thing_plc;rounded=1;shadow=0;" parent="209" vertex="1">
                    <mxGeometry x="81.44999999999999" y="8.679245283018869" width="16.9811320754717" height="16.9811320754717" as="geometry"/>
                </mxCell>
                <mxCell id="214" value="POST" style="rounded=1;whiteSpace=wrap;html=1;shadow=0;strokeColor=none;fontSize=8;fillColor=#60a917;fontColor=#ffffff;rotation=-90;" parent="1" vertex="1">
                    <mxGeometry x="800" y="165" width="30" height="10" as="geometry"/>
                </mxCell>
                <mxCell id="220" style="edgeStyle=none;html=1;exitX=0.5;exitY=1;exitDx=0;exitDy=0;entryX=0.5;entryY=0;entryDx=0;entryDy=0;strokeColor=#006EAF;fontSize=11;endArrow=classic;endFill=1;fillColor=#1ba1e2;" parent="1" source="216" target="201" edge="1">
                    <mxGeometry relative="1" as="geometry"/>
                </mxCell>
                <mxCell id="221" style="edgeStyle=none;html=1;exitX=0.75;exitY=1;exitDx=0;exitDy=0;strokeColor=#B20000;fontSize=11;endArrow=oval;endFill=0;fillColor=#e51400;" parent="1" source="216" edge="1">
                    <mxGeometry relative="1" as="geometry">
                        <mxPoint x="969.9999999999998" y="159.94117647058823" as="targetPoint"/>
                    </mxGeometry>
                </mxCell>
                <mxCell id="231" style="edgeStyle=none;html=1;exitX=0.25;exitY=1;exitDx=0;exitDy=0;entryX=0.834;entryY=-0.026;entryDx=0;entryDy=0;strokeColor=#006EAF;fontSize=11;endArrow=none;endFill=0;entryPerimeter=0;fillColor=#1ba1e2;startArrow=classic;startFill=1;" parent="1" source="216" target="75" edge="1">
                    <mxGeometry relative="1" as="geometry">
                        <Array as="points">
                            <mxPoint x="1000" y="180"/>
                            <mxPoint x="1000" y="120"/>
                            <mxPoint x="580" y="120"/>
                            <mxPoint x="580" y="510"/>
                            <mxPoint x="450" y="510"/>
                        </Array>
                    </mxGeometry>
                </mxCell>
                <mxCell id="216" value="CLIENT" style="rounded=1;whiteSpace=wrap;html=1;shadow=0;strokeColor=none;fontSize=8;fillColor=#009999;fontColor=#ffffff;rotation=-90;" parent="1" vertex="1">
                    <mxGeometry x="920" y="165" width="40" height="10" as="geometry"/>
                </mxCell>
                <mxCell id="223" value="" style="group" parent="1" vertex="1" connectable="0">
                    <mxGeometry x="1290" y="155" width="120" height="40" as="geometry"/>
                </mxCell>
                <mxCell id="224" value="" style="rounded=1;whiteSpace=wrap;html=1;strokeColor=none;fillColor=#2ECC71;shadow=0;" parent="223" vertex="1">
                    <mxGeometry width="120" height="40" as="geometry"/>
                </mxCell>
                <mxCell id="225" value="Builder" style="text;html=1;strokeColor=none;fillColor=none;align=left;verticalAlign=middle;whiteSpace=wrap;rounded=0;" parent="223" vertex="1">
                    <mxGeometry x="9" y="12.093023255813954" width="79" height="15.813953488372094" as="geometry"/>
                </mxCell>
                <mxCell id="226" value="" style="sketch=0;outlineConnect=0;fontColor=#232F3E;gradientColor=none;fillColor=#3F8624;strokeColor=none;dashed=0;verticalLabelPosition=bottom;verticalAlign=top;align=center;html=1;fontSize=12;fontStyle=0;aspect=fixed;pointerEvents=1;shape=mxgraph.aws4.iot_thing_plc;rounded=1;shadow=0;" parent="223" vertex="1">
                    <mxGeometry x="81.44999999999999" y="8.679245283018869" width="16.9811320754717" height="16.9811320754717" as="geometry"/>
                </mxCell>
                <mxCell id="227" value="POST" style="rounded=1;whiteSpace=wrap;html=1;shadow=0;strokeColor=none;fontSize=8;fillColor=#60a917;fontColor=#ffffff;rotation=-90;" parent="1" vertex="1">
                    <mxGeometry x="1270" y="170" width="30" height="10" as="geometry"/>
                </mxCell>
                <mxCell id="228" style="edgeStyle=none;html=1;exitX=0.5;exitY=1;exitDx=0;exitDy=0;strokeColor=#006EAF;fontSize=11;endArrow=classic;endFill=1;fillColor=#1ba1e2;" parent="1" source="222" target="227" edge="1">
                    <mxGeometry relative="1" as="geometry"/>
                </mxCell>
                <mxCell id="230" style="edgeStyle=none;html=1;exitX=0.5;exitY=1;exitDx=0;exitDy=0;entryX=0.429;entryY=-0.094;entryDx=0;entryDy=0;entryPerimeter=0;strokeColor=#00CC00;fontSize=11;endArrow=classic;endFill=1;" parent="1" source="229" target="161" edge="1">
                    <mxGeometry relative="1" as="geometry">
                        <Array as="points">
                            <mxPoint x="1440" y="175"/>
                            <mxPoint x="1440" y="290"/>
                            <mxPoint x="1400" y="290"/>
                            <mxPoint x="1400" y="399"/>
                        </Array>
                    </mxGeometry>
                </mxCell>
                <mxCell id="229" value="CLIENT" style="rounded=1;whiteSpace=wrap;html=1;shadow=0;strokeColor=none;fontSize=8;fillColor=#009999;fontColor=#ffffff;rotation=-90;" parent="1" vertex="1">
                    <mxGeometry x="1390" y="170" width="40" height="10" as="geometry"/>
                </mxCell>
            </root>
        </mxGraphModel>
    </diagram>
</mxfile>